<?xml version="1.0" standalone="no"?>
<!DOCTYPE svg PUBLIC "-//W3C//DTD SVG 20010904//EN"
 "http://www.w3.org/TR/2001/REC-SVG-20010904/DTD/svg10.dtd">
<svg version="1.0" xmlns="http://www.w3.org/2000/svg"
 width="500.000000pt" height="85.000000pt" viewBox="0 0 500.000000 85.000000"
 preserveAspectRatio="xMidYMid meet">

<g transform="translate(0.000000,85.000000) scale(0.100000,-0.100000)"
fill="#000000" stroke="none">
<path d="M4380 839 c0 -5 5 -7 10 -4 6 3 10 8 10 11 0 2 -4 4 -10 4 -5 0 -10
-5 -10 -11z"/>
<path d="M4443 838 c-13 -14 -14 -58 -2 -58 17 0 31 31 23 51 -8 18 -12 19
-21 7z"/>
<path d="M4529 826 l22 -24 -28 -8 c-15 -4 -32 -8 -38 -8 -5 -1 -14 -7 -18
-13 -11 -17 -47 -17 -47 0 0 8 -8 21 -18 30 -18 16 -19 16 -17 -5 1 -13 -5
-28 -14 -34 -12 -10 -13 -15 -3 -27 7 -8 21 -14 30 -12 9 2 21 4 25 4 5 1 5 6
2 12 -4 5 10 1 32 -11 32 -17 38 -18 41 -5 2 8 8 15 14 15 5 0 7 7 4 16 -3 9
-2 12 5 9 5 -4 7 -16 3 -27 -5 -17 -2 -19 25 -16 19 1 39 -4 51 -15 24 -20 40
-22 40 -5 0 6 6 3 14 -8 13 -16 18 -17 35 -6 18 10 21 10 21 -3 0 -8 6 -12 14
-9 8 3 17 0 22 -7 5 -8 3 -10 -7 -4 -10 6 -11 5 -3 -4 6 -7 20 -13 30 -13 14
-1 21 -10 22 -27 2 -20 -1 -22 -10 -13 -18 18 -28 15 -28 -8 0 -13 -10 -24
-25 -30 -14 -5 -25 -11 -25 -12 0 -2 21 -3 46 -3 38 -1 42 1 29 12 -10 6 -15
18 -12 25 4 10 6 10 6 1 1 -7 10 -13 22 -13 11 0 18 -4 15 -9 -3 -5 1 -14 10
-21 12 -11 12 -15 2 -22 -10 -6 -7 -10 10 -14 17 -5 20 -10 12 -19 -9 -11 -7
-12 8 -8 11 2 23 -1 27 -8 5 -8 4 -10 -3 -5 -8 5 -12 -1 -13 -16 0 -22 -1 -22
-9 -3 -5 11 -9 14 -9 7 -1 -17 -75 21 -109 56 -14 15 -22 21 -18 15 9 -15 -10
-18 -19 -3 -4 6 -10 8 -15 5 -5 -3 -11 -1 -14 4 -3 5 -26 12 -50 15 -55 9 -77
30 -47 45 13 7 22 8 26 1 3 -5 1 -10 -4 -10 -6 0 -11 -4 -11 -10 0 -8 9 -8 50
-1 3 1 -6 11 -20 22 -18 15 -20 19 -7 15 10 -3 25 -6 33 -6 9 0 13 -3 11 -7
-3 -5 7 -8 21 -9 15 0 36 -4 47 -8 13 -4 12 -3 -3 5 -13 7 -21 18 -18 26 3 8
1 11 -4 8 -6 -3 -10 -2 -10 3 0 17 13 22 27 10 10 -8 12 -8 8 4 -7 18 -62 19
-62 1 0 -7 4 -10 8 -8 4 3 9 -1 12 -9 5 -11 -1 -12 -30 -3 -26 8 -39 8 -54 -1
-10 -7 -26 -12 -34 -12 -9 0 -13 -4 -10 -10 3 -5 1 -10 -5 -10 -6 0 -13 7 -16
15 -6 16 -24 21 -24 7 0 -5 12 -15 27 -23 l26 -14 -29 -6 -29 -7 33 -1 c17 0
41 -10 52 -21 10 -10 22 -15 25 -10 6 10 108 -17 113 -31 2 -5 9 -9 15 -9 21
0 105 -63 122 -92 9 -16 14 -36 11 -45 -4 -8 -1 -23 6 -32 10 -13 10 -14 -2
-3 -19 17 -31 15 -23 -4 4 -10 -1 -17 -16 -21 -11 -3 -21 -13 -21 -23 0 -10
-7 -23 -15 -30 -12 -10 -13 -6 -10 27 2 21 2 29 -1 18 -8 -28 -16 -35 -47 -37
-15 -1 -27 -6 -27 -10 0 -4 -7 -5 -16 -1 -13 5 -13 7 -2 14 11 7 10 11 -2 19
-8 5 -20 8 -27 5 -7 -2 -10 3 -7 13 3 9 -1 6 -9 -8 -8 -14 -18 -45 -21 -70 -3
-24 -13 -51 -21 -59 -14 -14 -84 -21 -224 -22 -19 0 -44 -5 -55 -11 -20 -11
-20 -11 -1 -19 29 -11 89 -11 119 1 14 5 36 6 49 2 31 -12 153 0 150 14 -1 7
3 11 10 11 22 -1 77 15 77 23 0 4 15 11 34 14 22 4 46 20 65 42 41 46 112 186
93 183 -19 -3 -26 2 -13 10 11 7 11 15 3 41 -13 37 4 126 43 222 26 63 22 72
-15 33 -14 -15 -21 -31 -17 -44 6 -23 -23 -55 -30 -34 -2 7 -11 9 -19 6 -8 -3
-14 0 -14 6 0 6 5 10 11 8 13 -2 22 100 9 108 -4 3 -6 -3 -3 -14 3 -10 -3 -34
-12 -52 -17 -32 -18 -32 -32 -13 -8 10 -20 18 -26 16 -6 -2 -17 5 -25 15 -9
13 -15 15 -20 6 -5 -8 -12 -9 -22 -2 -11 8 -12 12 -2 16 6 2 10 9 7 13 -10 17
7 60 24 60 32 0 40 13 25 40 l-14 25 6 -27 c4 -18 2 -28 -5 -28 -6 0 -11 5
-11 10 0 25 -18 6 -29 -30 -7 -22 -16 -38 -21 -35 -5 3 -7 -4 -5 -15 7 -35
-20 -22 -38 20 -20 48 -27 51 -22 10 2 -17 0 -28 -6 -24 -5 3 -7 10 -4 15 4 5
-5 9 -19 9 -17 0 -26 -6 -26 -16 0 -14 -2 -14 -15 0 -8 8 -12 21 -9 29 3 8 -8
28 -26 46 -37 36 -54 42 -21 7z m41 -46 c0 -5 -2 -10 -4 -10 -3 0 -8 5 -11 10
-3 6 -1 10 4 10 6 0 11 -4 11 -10z m373 -115 c-3 -9 -8 -14 -10 -11 -3 3 -2 9
2 15 9 16 15 13 8 -4z m-85 -80 c-3 -27 -22 -34 -31 -11 -4 10 -1 13 9 9 8 -3
14 1 14 11 0 9 2 16 5 16 3 0 4 -11 3 -25z m49 -7 c-14 -21 -27 -24 -27 -5 0
17 6 24 24 24 11 0 12 -4 3 -19z m-17 -163 c0 -8 -2 -15 -4 -15 -2 0 -6 7 -10
15 -3 8 -1 15 4 15 6 0 10 -7 10 -15z m-163 -211 c-3 -3 -12 -4 -19 -1 -8 3
-5 6 6 6 11 1 17 -2 13 -5z"/>
<path d="M4603 809 c0 -40 1 -41 9 -17 6 17 6 34 0 44 -7 12 -9 5 -9 -27z"/>
<path d="M4710 826 c0 -2 8 -10 18 -17 15 -13 16 -12 3 4 -13 16 -21 21 -21
13z"/>
<path d="M2084 752 c-128 -44 -203 -165 -191 -308 9 -114 86 -215 189 -250
112 -37 241 -10 317 67 85 85 110 235 57 344 -67 136 -224 198 -372 147z m184
-157 c41 -34 55 -75 50 -140 -4 -44 -11 -62 -33 -85 -51 -54 -139 -58 -190
-10 -61 57 -50 199 19 241 46 28 117 25 154 -6z"/>
<path d="M3817 756 c-75 -28 -117 -86 -117 -161 0 -89 36 -127 167 -176 56
-22 90 -41 101 -57 15 -23 15 -26 -7 -43 -13 -11 -28 -19 -35 -19 -19 0 -56
30 -56 46 0 11 -18 14 -85 14 -84 0 -85 0 -85 -25 0 -89 97 -157 225 -157 118
-1 190 43 216 131 29 97 -22 165 -163 219 -94 35 -111 49 -106 84 2 19 9 23
38 23 27 0 37 -5 45 -22 9 -21 16 -23 97 -23 100 0 103 3 67 77 -31 64 -90 95
-188 100 -49 2 -90 -2 -114 -11z"/>
<path d="M200 469 l0 -291 183 4 c199 3 226 10 270 69 45 62 26 163 -40 204
-39 24 -40 29 -9 43 39 17 58 56 58 113 0 63 -21 95 -82 127 -41 20 -58 22
-212 22 l-168 0 0 -291z m288 149 c17 -17 15 -54 -4 -72 -10 -11 -34 -16 -70
-16 l-54 0 0 50 0 50 58 0 c32 0 63 -5 70 -12z m-8 -211 c32 -16 40 -65 14
-84 -10 -7 -44 -13 -76 -13 l-58 0 0 55 0 55 48 0 c26 0 58 -6 72 -13z"/>
<path d="M750 470 l0 -290 80 0 80 0 0 290 0 290 -80 0 -80 0 0 -290z"/>
<path d="M972 698 l3 -63 78 -3 77 -3 0 -224 0 -225 80 0 80 0 0 225 0 225 75
0 75 0 0 65 0 65 -235 0 -236 0 3 -62z"/>
<path d="M1500 470 l0 -290 175 0 175 0 0 60 0 60 -90 0 -90 0 0 230 0 230
-85 0 -85 0 0 -290z"/>
<path d="M2560 470 l0 -290 80 0 80 0 0 106 c0 76 3 105 12 102 6 -2 36 -50
66 -106 l55 -102 90 0 c49 0 87 3 85 8 -1 4 -30 54 -63 111 -55 97 -58 105
-41 115 99 58 130 146 87 242 -38 84 -96 104 -297 104 l-154 0 0 -290z m285
135 c29 -28 31 -42 9 -73 -13 -19 -24 -22 -75 -22 l-59 0 0 60 0 60 50 0 c41
0 56 -5 75 -25z"/>
<path d="M3100 470 l0 -292 163 4 c184 4 224 16 292 83 56 57 79 115 79 205 0
122 -47 205 -149 258 -47 25 -59 27 -217 30 l-168 4 0 -292z m295 136 c69 -29
97 -132 58 -213 -20 -42 -78 -72 -140 -73 l-42 0 -3 150 -3 150 48 0 c26 0 63
-6 82 -14z"/>
<path d="M4360 709 c0 -5 5 -9 12 -9 6 0 1 -12 -13 -27 l-24 -28 25 21 c14 12
30 23 37 25 7 2 1 9 -12 16 -14 6 -25 7 -25 2z"/>
<path d="M4425 700 c3 -5 11 -10 16 -10 6 0 7 5 4 10 -3 6 -11 10 -16 10 -6 0
-7 -4 -4 -10z"/>
<path d="M4499 689 c-10 -6 -7 -9 14 -9 29 0 35 5 14 13 -8 3 -20 1 -28 -4z"/>
<path d="M4555 681 c-7 -12 12 -24 25 -16 11 7 4 25 -10 25 -5 0 -11 -4 -15
-9z"/>
<path d="M4388 663 c7 -3 16 -2 19 1 4 3 -2 6 -13 5 -11 0 -14 -3 -6 -6z"/>
<path d="M4479 660 c10 -5 -5 -8 -40 -8 -30 0 -67 -5 -83 -11 l-29 -11 22 -19
c11 -10 21 -21 21 -23 0 -9 -45 -3 -52 6 -11 16 -38 -15 -38 -44 0 -30 30 -65
37 -43 3 7 13 23 23 35 15 19 27 22 84 22 42 0 63 3 57 9 -5 5 -21 10 -34 10
-22 0 -25 3 -21 26 4 21 2 23 -7 11 -9 -13 -10 -13 -6 0 3 12 17 14 60 12 46
-2 57 0 57 12 0 10 -6 13 -17 9 -9 -4 -14 -2 -10 3 3 6 -4 11 -16 11 -16 2
-18 0 -8 -7z m-76 -40 c3 -11 6 -24 7 -27 1 -4 -4 -9 -11 -12 -7 -2 -9 1 -5 8
4 6 2 11 -4 11 -6 0 -8 5 -4 12 5 8 2 9 -11 4 -15 -5 -16 -4 -5 9 17 20 27 19
33 -5z m-91 -72 c-10 -22 -11 -21 -11 12 -1 26 2 31 11 22 8 -8 8 -17 0 -34z"/>
<path d="M4900 629 c0 -5 5 -7 10 -4 6 3 10 8 10 11 0 2 -4 4 -10 4 -5 0 -10
-5 -10 -11z"/>
<path d="M4386 541 c-4 -7 -5 -15 -2 -18 9 -9 19 4 14 18 -4 11 -6 11 -12 0z"/>
<path d="M4736 536 c6 -14 33 -30 41 -23 9 10 -11 37 -28 37 -12 0 -16 -5 -13
-14z"/>
<path d="M4790 534 c0 -8 5 -12 10 -9 6 3 10 10 10 16 0 5 -4 9 -10 9 -5 0
-10 -7 -10 -16z"/>
<path d="M4459 529 c-8 -4 -8 -13 0 -28 13 -23 6 -45 -10 -36 -18 12 -8 -15
13 -35 29 -27 64 -35 97 -24 36 13 42 73 11 102 -22 20 -92 33 -111 21z"/>
<path d="M4337 489 c-26 -15 -37 -50 -21 -66 7 -7 11 -22 9 -33 -5 -26 11 -26
18 0 10 40 34 14 29 -31 -2 -12 37 3 42 16 2 7 -2 25 -10 41 -8 15 -13 35 -12
43 6 36 -21 50 -55 30z"/>
<path d="M4607 471 c3 -12 9 -21 14 -21 5 0 9 -8 9 -17 0 -15 -2 -16 -10 -3
-8 12 -10 11 -10 -7 0 -17 10 -27 38 -39 26 -12 32 -18 20 -21 -10 -3 -15 -10
-11 -19 4 -10 0 -12 -11 -8 -9 3 -13 11 -9 18 6 9 -21 -8 -37 -24 -25 -25 -41
-32 -53 -21 -11 8 -13 5 -9 -19 4 -25 1 -30 -16 -30 -12 0 -26 -8 -31 -17 -10
-17 -10 -17 -11 0 0 20 -36 24 -43 5 -4 -10 -6 -10 -6 0 -1 7 -5 10 -11 7 -5
-3 -10 2 -11 12 0 10 -3 13 -6 6 -7 -19 -41 -15 -52 6 -6 10 -7 22 -3 26 4 5
2 5 -5 2 -6 -4 -13 -1 -16 5 -2 7 -8 9 -13 5 -5 -4 -4 -11 1 -15 6 -4 16 -15
24 -24 12 -16 10 -19 -10 -28 -23 -9 -23 -10 6 -8 17 1 35 0 40 -4 6 -3 18 -4
28 -3 9 2 17 -1 17 -6 0 -6 5 -7 11 -3 6 3 15 0 20 -7 6 -10 9 -11 9 -1 0 19
20 14 21 -5 0 -11 3 -13 6 -5 2 6 9 12 14 12 6 0 8 -4 5 -9 -4 -5 5 -6 21 -2
23 6 29 14 31 42 4 37 18 51 43 43 9 -2 24 3 33 11 9 9 20 14 26 10 5 -3 12 6
16 20 4 15 11 22 18 18 6 -3 0 6 -14 21 -14 15 -25 35 -26 44 -1 10 -2 31 -3
47 -1 22 -4 26 -10 16 -8 -12 -12 -12 -24 -2 -13 10 -15 9 -10 -8z"/>
<path d="M4473 375 c0 -8 4 -12 9 -9 4 3 8 9 8 15 0 5 -4 9 -8 9 -5 0 -9 -7
-9 -15z"/>
<path d="M4680 317 c0 -7 9 -18 20 -25 12 -7 20 -8 20 -2 0 5 10 10 21 10 18
0 19 2 9 15 -10 12 -16 13 -26 4 -10 -8 -14 -8 -14 0 0 6 -7 11 -15 11 -8 0
-15 -6 -15 -13z"/>
<path d="M4430 310 c0 -5 5 -10 11 -10 5 0 7 5 4 10 -3 6 -8 10 -11 10 -2 0
-4 -4 -4 -10z"/>
<path d="M4391 194 c0 -11 3 -14 6 -6 3 7 2 16 -1 19 -3 4 -6 -2 -5 -13z"/>
<path d="M4312 175 c0 -16 2 -22 5 -12 2 9 2 23 0 30 -3 6 -5 -1 -5 -18z"/>
<path d="M4557 171 c-4 -17 -3 -21 5 -13 5 5 8 16 6 23 -3 8 -7 3 -11 -10z"/>
</g>
</svg>
