<?xml version="1.0" standalone="no"?>
<!DOCTYPE svg PUBLIC "-//W3C//DTD SVG 20010904//EN"
 "http://www.w3.org/TR/2001/REC-SVG-20010904/DTD/svg10.dtd">
<svg version="1.0" xmlns="http://www.w3.org/2000/svg"
 width="500.000000pt" height="500.000000pt" viewBox="0 0 500.000000 500.000000"
 preserveAspectRatio="xMidYMid meet">

<g transform="translate(0.000000,500.000000) scale(0.100000,-0.100000)"
fill="#000000" stroke="none">
<path d="M4467 2893 c-4 -3 -7 -11 -7 -17 0 -6 5 -5 12 2 6 6 9 14 7 17 -3 3
-9 2 -12 -2z"/>
<path d="M4431 2847 c-13 -21 -12 -21 5 -5 10 10 16 20 13 22 -3 3 -11 -5 -18
-17z"/>
<path d="M4492 2850 c11 -17 10 -22 -2 -31 -13 -9 -12 -10 3 -5 10 3 17 0 17
-8 0 -7 9 -21 20 -31 20 -19 20 -19 -11 -32 -17 -7 -35 -11 -39 -8 -4 3 -10
-2 -14 -10 -7 -19 -46 -20 -46 -2 0 8 -8 21 -18 30 -18 16 -19 16 -17 -5 1
-13 -5 -28 -14 -35 -13 -9 -13 -14 -4 -24 18 -18 43 -20 50 -4 4 11 12 10 41
-6 32 -16 37 -17 40 -4 2 8 8 15 13 15 5 0 9 5 9 11 0 5 -5 7 -12 3 -7 -4 -8
-3 -4 5 12 18 28 2 20 -21 -5 -18 -3 -20 25 -16 22 3 36 -1 48 -14 18 -20 43
-24 43 -6 0 6 6 3 14 -8 13 -16 18 -17 35 -6 18 10 21 10 21 -3 0 -8 6 -12 14
-9 8 3 17 0 22 -7 5 -8 3 -10 -7 -4 -10 6 -11 5 -3 -4 6 -7 20 -13 30 -13 14
-1 21 -10 22 -27 2 -20 -1 -22 -10 -13 -18 18 -28 15 -28 -8 0 -13 -10 -24
-25 -30 -14 -5 -25 -11 -25 -12 0 -2 20 -3 45 -3 37 0 43 2 29 12 -9 6 -14 18
-11 25 4 10 6 10 6 1 1 -7 10 -13 22 -13 12 0 17 4 13 11 -5 8 -1 8 14 0 27
-15 30 -14 35 7 3 9 4 5 4 -10 -1 -28 -21 -38 -31 -15 -6 15 -36 -20 -36 -42
1 -13 3 -13 14 2 8 10 17 14 20 8 3 -5 0 -12 -6 -14 -8 -4 -4 -8 10 -13 17 -5
20 -10 12 -19 -9 -11 -7 -12 8 -8 11 2 23 -1 27 -8 5 -8 4 -10 -3 -5 -8 5 -12
-1 -13 -16 0 -22 -1 -22 -9 -3 -5 11 -9 14 -9 7 -1 -17 -75 21 -109 56 -14 15
-22 21 -18 15 9 -15 -10 -18 -19 -3 -4 6 -10 8 -15 5 -5 -3 -11 -1 -14 4 -3 5
-26 12 -50 15 -55 9 -77 30 -47 45 13 7 22 8 26 1 3 -5 1 -10 -4 -10 -6 0 -11
-4 -11 -10 0 -8 9 -8 50 -1 3 1 -6 11 -20 22 -18 15 -20 19 -7 15 10 -3 25 -6
33 -6 9 0 13 -3 11 -7 -3 -5 7 -8 21 -9 15 0 36 -4 47 -8 13 -4 12 -3 -3 5
-13 7 -21 18 -18 26 3 8 1 11 -4 8 -6 -3 -10 -2 -10 3 0 17 13 22 27 10 10 -8
12 -8 8 4 -7 18 -62 19 -62 1 0 -7 4 -10 8 -8 4 3 9 -1 12 -9 5 -11 -1 -12
-30 -3 -26 8 -39 8 -54 -1 -10 -7 -26 -12 -34 -12 -9 0 -13 -4 -10 -10 3 -5 1
-10 -5 -10 -6 0 -13 7 -16 15 -6 16 -24 21 -24 7 0 -5 12 -15 27 -23 l26 -14
-29 -6 -29 -7 33 -1 c18 -1 39 -9 49 -21 10 -11 21 -16 27 -11 12 9 109 -17
114 -31 2 -4 9 -8 15 -8 21 0 105 -63 122 -92 9 -16 14 -36 11 -45 -4 -8 -1
-23 6 -32 10 -13 10 -14 -2 -3 -19 17 -31 15 -23 -4 4 -10 -1 -17 -16 -21 -11
-3 -21 -13 -21 -23 0 -10 -7 -23 -15 -30 -9 -8 -15 -9 -15 -2 0 6 5 14 10 17
6 4 8 11 4 16 -3 6 -10 4 -17 -4 -11 -13 -63 -31 -77 -27 -3 1 -4 7 -2 15 3
14 -25 28 -39 20 -5 -4 -6 2 -3 12 3 10 -1 7 -9 -7 -8 -14 -18 -45 -21 -70 -9
-65 -23 -74 -119 -78 -144 -4 -172 -7 -186 -16 -33 -21 74 -35 123 -16 14 5
36 6 49 2 31 -12 153 0 150 14 -1 7 3 11 10 11 22 -1 77 15 77 23 0 4 15 11
34 14 42 8 85 55 124 134 30 61 32 69 18 91 -7 11 -5 13 7 8 14 -5 14 -2 2 34
-13 35 -12 49 1 105 8 36 23 87 34 115 27 66 25 77 -6 48 -17 -16 -24 -31 -21
-46 5 -25 -23 -58 -30 -36 -2 7 -11 9 -19 6 -8 -3 -14 0 -14 6 0 6 5 10 11 9
13 -3 22 99 9 107 -4 3 -6 -3 -3 -14 5 -20 -22 -81 -36 -81 -5 0 -12 10 -15
23 -6 21 -7 21 -20 5 -15 -21 -27 -24 -21 -5 7 18 -13 45 -23 30 -5 -8 -12 -9
-22 -2 -11 8 -12 12 -2 16 6 2 10 9 7 13 -13 22 7 58 36 64 l29 5 -17 36 c-9
19 -18 33 -20 31 -2 -2 2 -15 8 -30 7 -14 9 -29 4 -34 -4 -4 -10 -1 -12 6 -8
22 -20 12 -32 -28 -7 -25 -16 -38 -23 -34 -7 5 -9 0 -6 -14 10 -38 -16 -24
-35 18 -20 48 -27 51 -22 10 2 -17 0 -28 -6 -24 -5 3 -7 10 -4 15 4 5 -5 9
-19 9 -17 0 -26 -6 -26 -16 0 -14 -2 -14 -15 0 -8 8 -12 22 -9 30 4 11 -3 24
-19 36 -14 11 -33 40 -43 65 -9 25 -21 45 -25 45 -5 0 -4 -9 3 -20z m78 -120
c0 -5 -2 -10 -4 -10 -3 0 -8 5 -11 10 -3 6 -1 10 4 10 6 0 11 -4 11 -10z m373
-115 c-3 -9 -8 -14 -10 -11 -3 3 -2 9 2 15 9 16 15 13 8 -4z m-36 -87 c-14
-21 -27 -24 -27 -5 0 17 6 24 24 24 11 0 12 -4 3 -19z m-17 -158 c0 -5 -2 -10
-4 -10 -3 0 -8 5 -11 10 -3 6 -1 10 4 10 6 0 11 -4 11 -10z m-163 -216 c-3 -3
-12 -4 -19 -1 -8 3 -5 6 6 6 11 1 17 -2 13 -5z"/>
<path d="M4454 2833 c-4 -10 -6 -22 -5 -27 1 -4 -3 -13 -8 -20 -11 -13 -11
-56 1 -56 14 0 23 26 24 73 1 52 0 55 -12 30z"/>
<path d="M4390 2831 c0 -6 4 -13 10 -16 6 -3 7 1 4 9 -7 18 -14 21 -14 7z"/>
<path d="M4380 2789 c0 -5 5 -7 10 -4 6 3 10 8 10 11 0 2 -4 4 -10 4 -5 0 -10
-5 -10 -11z"/>
<path d="M4603 2759 c0 -40 1 -41 9 -17 6 17 6 34 0 44 -7 12 -9 5 -9 -27z"/>
<path d="M4710 2776 c0 -2 8 -10 18 -17 15 -13 16 -12 3 4 -13 16 -21 21 -21
13z"/>
<path d="M2084 2702 c-129 -46 -203 -165 -191 -308 12 -158 136 -267 303 -266
165 1 286 126 286 296 0 119 -55 212 -156 263 -68 35 -170 41 -242 15z m184
-157 c41 -34 55 -75 50 -140 -5 -64 -40 -109 -94 -124 -36 -10 -96 0 -120 20
-46 38 -62 145 -30 206 21 42 59 62 118 63 35 0 54 -6 76 -25z"/>
<path d="M3817 2706 c-83 -31 -121 -91 -115 -178 6 -87 34 -112 191 -169 35
-13 64 -31 74 -46 16 -25 16 -26 -6 -44 -13 -11 -28 -19 -35 -19 -19 0 -56 30
-56 46 0 11 -18 14 -85 14 -84 0 -85 0 -85 -25 0 -89 97 -157 225 -157 118 -1
190 43 216 131 29 97 -22 165 -164 219 -94 36 -110 49 -105 84 2 19 9 23 38
23 27 0 37 -5 45 -22 9 -21 16 -23 97 -23 100 0 103 3 67 77 -31 64 -90 95
-188 100 -49 2 -90 -2 -114 -11z"/>
<path d="M200 2419 l0 -291 183 4 c199 3 226 10 270 69 45 62 26 163 -40 204
-39 24 -40 29 -9 43 38 17 58 56 59 112 1 62 -21 96 -83 128 -41 20 -58 22
-212 22 l-168 0 0 -291z m288 149 c17 -17 15 -54 -4 -72 -10 -11 -34 -16 -70
-16 l-54 0 0 50 0 50 58 0 c32 0 63 -5 70 -12z m-8 -211 c32 -16 40 -65 14
-84 -10 -7 -44 -13 -76 -13 l-58 0 0 55 0 55 48 0 c26 0 58 -6 72 -13z"/>
<path d="M750 2420 l0 -290 80 0 80 0 0 290 0 290 -80 0 -80 0 0 -290z"/>
<path d="M972 2648 l3 -63 78 -3 77 -3 0 -224 0 -225 80 0 80 0 0 225 0 225
75 0 75 0 0 65 0 65 -235 0 -236 0 3 -62z"/>
<path d="M1500 2420 l0 -290 175 0 175 0 0 60 0 60 -90 0 -90 0 0 230 0 230
-85 0 -85 0 0 -290z"/>
<path d="M2560 2420 l0 -290 80 0 80 0 0 104 c0 58 4 107 8 110 4 2 34 -45 66
-105 l59 -109 89 0 c48 0 88 2 88 4 0 2 -28 53 -62 112 -58 100 -61 108 -44
118 99 58 130 146 87 242 -38 84 -96 104 -297 104 l-154 0 0 -290z m285 135
c29 -28 31 -42 9 -73 -13 -19 -24 -22 -75 -22 l-59 0 0 60 0 60 50 0 c41 0 56
-5 75 -25z"/>
<path d="M3100 2420 l0 -292 163 4 c184 4 224 16 292 83 58 59 79 115 79 210
-1 121 -47 199 -149 253 -47 25 -59 27 -217 30 l-168 4 0 -292z m295 136 c48
-21 75 -68 75 -135 0 -95 -59 -151 -160 -151 l-40 0 0 150 0 150 45 0 c25 0
61 -6 80 -14z"/>
<path d="M4360 2659 c0 -5 5 -9 12 -9 6 0 1 -12 -13 -27 l-24 -28 25 21 c14
12 30 23 37 25 7 2 1 9 -12 16 -14 6 -25 7 -25 2z"/>
<path d="M4425 2650 c3 -5 11 -10 16 -10 6 0 7 5 4 10 -3 6 -11 10 -16 10 -6
0 -7 -4 -4 -10z"/>
<path d="M4499 2639 c-10 -6 -7 -9 14 -9 29 0 35 5 14 13 -8 3 -20 1 -28 -4z"/>
<path d="M4555 2631 c-7 -12 12 -24 25 -16 11 7 4 25 -10 25 -5 0 -11 -4 -15
-9z"/>
<path d="M4479 2610 c10 -5 -5 -8 -40 -8 -30 0 -67 -5 -83 -11 l-29 -11 22
-19 c11 -10 21 -21 21 -23 0 -9 -45 -3 -52 6 -11 16 -38 -15 -38 -44 0 -30 30
-65 37 -43 3 7 13 23 23 35 15 19 27 22 84 22 42 0 63 3 57 9 -5 5 -21 10 -34
10 -22 0 -25 3 -21 26 4 21 2 23 -7 11 -9 -13 -10 -13 -6 0 3 12 17 14 60 12
35 -2 57 1 57 8 0 5 -7 10 -16 10 -8 0 -13 4 -10 8 2 4 -5 9 -17 9 -16 2 -18
0 -8 -7z m-76 -40 c3 -11 6 -24 7 -27 1 -4 -4 -9 -11 -12 -7 -2 -9 1 -5 8 4 6
2 11 -4 11 -6 0 -8 5 -4 12 5 8 2 9 -11 4 -15 -5 -16 -4 -5 9 17 20 27 19 33
-5z m-91 -72 c-10 -22 -11 -21 -11 12 -1 26 2 31 11 22 8 -8 8 -17 0 -34z"/>
<path d="M4386 2491 c-4 -7 -5 -15 -2 -18 9 -9 19 4 14 18 -4 11 -6 11 -12 0z"/>
<path d="M4736 2486 c6 -14 33 -30 41 -23 9 10 -11 37 -28 37 -12 0 -16 -5
-13 -14z"/>
<path d="M4459 2479 c-8 -4 -8 -13 0 -28 13 -23 6 -45 -10 -36 -18 12 -8 -15
13 -35 29 -27 64 -35 97 -24 36 13 42 73 11 102 -22 20 -92 33 -111 21z"/>
<path d="M4602 2433 c7 -18 16 -33 20 -33 4 0 8 -8 8 -17 0 -15 -2 -16 -10 -3
-8 12 -10 11 -10 -7 0 -17 10 -27 38 -39 26 -12 32 -18 20 -21 -11 -3 -15 -10
-11 -20 5 -13 3 -13 -15 -4 -15 8 -24 8 -34 -2 -36 -34 -48 -39 -61 -28 -11 8
-13 5 -9 -19 4 -25 1 -30 -16 -30 -12 0 -26 -8 -31 -17 -10 -17 -10 -17 -11 0
0 20 -36 24 -43 5 -4 -10 -6 -10 -6 0 -1 7 -5 10 -11 7 -5 -3 -10 2 -11 12 0
10 -3 13 -6 6 -7 -19 -41 -15 -52 6 -6 10 -7 22 -3 26 4 5 2 5 -5 2 -6 -4 -13
-1 -16 5 -2 7 -8 9 -13 5 -5 -4 -4 -11 1 -15 6 -4 16 -15 24 -24 12 -16 10
-19 -10 -28 -23 -9 -23 -10 6 -8 17 1 35 0 40 -4 6 -3 18 -4 28 -3 9 2 17 -1
17 -6 0 -6 5 -7 11 -3 6 3 15 0 20 -7 6 -10 9 -11 9 -1 0 19 20 14 21 -5 0
-11 3 -13 6 -5 2 6 9 12 14 12 6 0 8 -4 5 -9 -4 -5 5 -6 21 -2 23 6 29 14 31
42 4 37 18 51 43 43 9 -2 24 3 33 11 9 9 20 14 26 10 5 -3 12 6 16 20 4 15 11
22 18 18 6 -3 0 6 -14 21 -14 15 -25 35 -26 44 -1 10 -2 31 -3 47 -1 24 -3 27
-11 15 -9 -13 -13 -11 -30 10 l-20 25 12 -32z m-82 -237 c0 -3 -4 -8 -10 -11
-5 -3 -10 -1 -10 4 0 6 5 11 10 11 6 0 10 -2 10 -4z"/>
<path d="M4337 2439 c-26 -15 -37 -50 -21 -66 7 -7 11 -22 9 -33 -5 -26 11
-26 18 0 10 39 31 21 30 -26 0 -15 34 -6 41 11 2 7 -2 25 -10 41 -8 15 -13 35
-12 43 6 36 -21 50 -55 30z"/>
<path d="M4473 2325 c0 -8 4 -12 9 -9 4 3 8 9 8 15 0 5 -4 9 -8 9 -5 0 -9 -7
-9 -15z"/>
<path d="M4680 2267 c0 -7 9 -18 20 -25 12 -7 18 -18 14 -24 -4 -7 -3 -8 4 -4
6 4 9 13 5 21 -3 11 2 15 17 15 19 0 20 2 10 15 -10 12 -16 13 -26 4 -10 -8
-14 -8 -14 0 0 6 -7 11 -15 11 -8 0 -15 -6 -15 -13z"/>
<path d="M4430 2260 c0 -5 5 -10 11 -10 5 0 7 5 4 10 -3 6 -8 10 -11 10 -2 0
-4 -4 -4 -10z"/>
<path d="M4391 2144 c0 -11 3 -14 6 -6 3 7 2 16 -1 19 -3 4 -6 -2 -5 -13z"/>
<path d="M4312 2125 c0 -16 2 -22 5 -12 2 9 2 23 0 30 -3 6 -5 -1 -5 -18z"/>
<path d="M4557 2121 c-4 -17 -3 -21 5 -13 5 5 8 16 6 23 -3 8 -7 3 -11 -10z"/>
</g>
</svg>
