<?xml version="1.0" encoding="UTF-8"?>
<!DOCTYPE svg PUBLIC "-//W3C//DTD SVG 1.1//EN" "http://www.w3.org/Graphics/SVG/1.1/DTD/svg11.dtd">
<svg xmlns="http://www.w3.org/2000/svg" version="1.1" width="500px" height="500px" style="shape-rendering:geometricPrecision; text-rendering:geometricPrecision; image-rendering:optimizeQuality; fill-rule:evenodd; clip-rule:evenodd" xmlns:xlink="http://www.w3.org/1999/xlink">
<g><path style="opacity:1" fill="#fefefe" d="M -0.5,-0.5 C 166.167,-0.5 332.833,-0.5 499.5,-0.5C 499.5,166.167 499.5,332.833 499.5,499.5C 332.833,499.5 166.167,499.5 -0.5,499.5C -0.5,332.833 -0.5,166.167 -0.5,-0.5 Z"/></g>
<g><path style="opacity:1" fill="#909090" d="M 173.5,220.5 C 172.755,222.671 172.588,225.005 173,227.5C 172.583,226.244 171.75,225.577 170.5,225.5C 170.858,221.491 171.358,217.491 172,213.5C 173.39,214.695 174.89,214.695 176.5,213.5C 174.973,215.193 173.64,217.027 172.5,219C 173.056,219.383 173.389,219.883 173.5,220.5 Z"/></g>
<g><path style="opacity:1" fill="#080808" d="M 90.5,288.5 C 89.1667,289.167 87.8333,289.833 86.5,290.5C 83.183,291.497 79.8497,292.497 76.5,293.5C 75.1667,293.5 73.8333,293.5 72.5,293.5C 72.5,291.833 72.5,290.167 72.5,288.5C 83.4219,284.664 87.5886,276.998 85,265.5C 83.4271,260.429 80.2604,256.762 75.5,254.5C 67.8814,257.221 61.3814,261.554 56,267.5C 54.5714,274.719 54.0714,282.053 54.5,289.5C 56.5,289.5 58.5,289.5 60.5,289.5C 60.5,290.833 60.5,292.167 60.5,293.5C 58.1667,293.5 55.8333,293.5 53.5,293.5C 51.5,293.5 49.5,293.5 47.5,293.5C 45.8333,293.5 44.1667,293.5 42.5,293.5C 41.6236,293.631 40.9569,293.298 40.5,292.5C 41.154,290.885 41.654,289.218 42,287.5C 42.6667,265.5 42.6667,243.5 42,221.5C 41.654,219.782 41.154,218.115 40.5,216.5C 53.1535,215.334 65.8202,215.167 78.5,216C 88.5789,217.252 94.5789,222.752 96.5,232.5C 94.4881,242.185 88.8214,248.852 79.5,252.5C 95.8461,257.192 101.013,267.525 95,283.5C 93.2927,285.037 91.7927,286.704 90.5,288.5 Z"/></g>
<g><path style="opacity:1" fill="#363636" d="M 183.5,211.5 C 181.682,209.922 180.682,210.422 180.5,213C 179.253,216.172 179.253,219.339 180.5,222.5C 179.25,222.577 178.417,223.244 178,224.5C 177.444,222.115 177.61,219.782 178.5,217.5C 178.586,216.504 178.252,215.671 177.5,215C 178.578,214.326 179.245,213.326 179.5,212C 178.834,210.331 178.834,208.831 179.5,207.5C 180.002,206.479 180.668,206.312 181.5,207C 182.582,208.33 183.249,209.83 183.5,211.5 Z"/></g>
<g><path style="opacity:1" fill="#ececec" d="M 183.5,211.5 C 183.52,213.143 182.853,214.476 181.5,215.5C 184.271,216.076 186.271,218.076 187.5,221.5C 185.742,221.877 184.075,222.544 182.5,223.5C 181.817,223.137 181.15,222.804 180.5,222.5C 179.253,219.339 179.253,216.172 180.5,213C 180.682,210.422 181.682,209.922 183.5,211.5 Z"/></g>
<g><path style="opacity:1" fill="#6e6e6e" d="M 54.5,219.5 C 54.1707,234.343 54.504,249.01 55.5,263.5C 55.44,264.043 55.1067,264.376 54.5,264.5C 53.1738,249.339 53.1738,234.339 54.5,219.5 Z"/></g>
<g><path style="opacity:1" fill="#fbfbfb" d="M 54.5,219.5 C 62.3821,218.861 70.0488,219.694 77.5,222C 85.463,227.49 86.6297,234.323 81,242.5C 75.6313,248.1 69.4646,252.6 62.5,256C 59.6511,258.075 57.3178,260.575 55.5,263.5C 54.504,249.01 54.1707,234.343 54.5,219.5 Z"/></g>
<g><path style="opacity:1" fill="#909090" d="M 183.5,211.5 C 185.303,214.164 186.97,216.997 188.5,220C 190.193,220.484 191.527,219.984 192.5,218.5C 192.5,220.167 192.5,221.833 192.5,223.5C 191.209,223.263 190.209,223.596 189.5,224.5C 188.957,224.44 188.624,224.107 188.5,223.5C 192.374,221.998 192.041,221.331 187.5,221.5C 186.271,218.076 184.271,216.076 181.5,215.5C 182.853,214.476 183.52,213.143 183.5,211.5 Z"/></g>
<g><path style="opacity:1" fill="#777777" d="M 215.5,227.5 C 214.325,226.026 213.325,224.36 212.5,222.5C 211.264,223.246 209.93,223.579 208.5,223.5C 208.649,222.448 208.483,221.448 208,220.5C 206.443,221.205 205.277,220.539 204.5,218.5C 204.833,217.5 205.5,216.833 206.5,216.5C 207.711,217.274 207.711,218.107 206.5,219C 208.421,219.36 210.088,220.194 211.5,221.5C 212.94,218.772 212.274,216.605 209.5,215C 211.108,214.342 212.275,214.842 213,216.5C 214.15,220.112 214.983,223.778 215.5,227.5 Z"/></g>
<g><path style="opacity:1" fill="#191919" d="M 187.5,221.5 C 192.041,221.331 192.374,221.998 188.5,223.5C 188.624,224.107 188.957,224.44 189.5,224.5C 190.338,224.842 190.672,225.508 190.5,226.5C 190.156,231.213 188.323,231.547 185,227.5C 182.464,230.313 180.297,230.146 178.5,227C 179.414,225.594 180.08,224.094 180.5,222.5C 181.15,222.804 181.817,223.137 182.5,223.5C 184.075,222.544 185.742,221.877 187.5,221.5 Z"/></g>
<g><path style="opacity:1" fill="#757575" d="M 192.5,218.5 C 193.008,216.767 193.841,216.434 195,217.5C 195.067,220.047 195.901,222.214 197.5,224C 196.207,224.49 194.873,224.657 193.5,224.5C 193.795,222.265 193.461,220.265 192.5,218.5 Z"/></g>
<g><path style="opacity:1" fill="#bfbfbf" d="M 215.5,227.5 C 217.028,227.517 217.528,228.184 217,229.5C 215.644,230.38 214.144,230.714 212.5,230.5C 210.983,230.511 209.816,231.177 209,232.5C 208.25,231.874 207.416,231.374 206.5,231C 207.554,229.612 207.72,228.112 207,226.5C 205.961,227.244 205.461,228.244 205.5,229.5C 203.51,229.007 203.51,227.84 205.5,226C 204.346,225.086 204.513,224.253 206,223.5C 206.333,224.167 206.667,224.833 207,225.5C 207.278,224.584 207.778,223.918 208.5,223.5C 209.93,223.579 211.264,223.246 212.5,222.5C 213.325,224.36 214.325,226.026 215.5,227.5 Z"/></g>
<g><path style="opacity:1" fill="#1d1d1d" d="M 173.5,220.5 C 173.833,221.5 174.5,222.167 175.5,222.5C 175.36,224.124 176.027,225.29 177.5,226C 176,226.833 174.833,228 174,229.5C 172.853,228.542 171.853,228.875 171,230.5C 170.768,229.263 170.268,228.263 169.5,227.5C 169.833,226.833 170.167,226.167 170.5,225.5C 171.75,225.577 172.583,226.244 173,227.5C 172.588,225.005 172.755,222.671 173.5,220.5 Z"/></g>
<g><path style="opacity:1" fill="#2a2a2a" d="M 204.5,230.5 C 203.415,233.294 201.582,233.961 199,232.5C 198.781,231.062 198.281,229.729 197.5,228.5C 197.598,229.616 197.098,230.616 196,231.5C 194.51,230.683 193.01,229.85 191.5,229C 191.728,228.601 192.062,228.435 192.5,228.5C 193.928,225.6 196.094,224.933 199,226.5C 199.492,225.451 199.326,224.451 198.5,223.5C 198.833,222.5 199.5,221.833 200.5,221.5C 200.33,223.891 200.996,226.391 202.5,229C 202.836,230.03 203.503,230.53 204.5,230.5 Z"/></g>
<g><path style="opacity:1" fill="#131313" d="M 110.5,229.5 C 117.997,228.804 119.997,231.637 116.5,238C 108.749,239.091 106.749,236.258 110.5,229.5 Z"/></g>
<g><path style="opacity:1" fill="#0c0c0c" d="M 141.5,229.5 C 142.5,229.5 143.5,229.5 144.5,229.5C 144.182,234.032 144.515,238.366 145.5,242.5C 149.167,242.5 152.833,242.5 156.5,242.5C 156.5,243.833 156.5,245.167 156.5,246.5C 152.833,246.5 149.167,246.5 145.5,246.5C 145.333,259.504 145.5,272.504 146,285.5C 149.929,288.152 153.429,287.485 156.5,283.5C 157.5,283.833 158.167,284.5 158.5,285.5C 156.322,287.745 153.988,289.745 151.5,291.5C 147.032,293.876 142.699,293.876 138.5,291.5C 136.35,288.528 135.35,285.195 135.5,281.5C 135.5,269.5 135.5,257.5 135.5,245.5C 133.5,245.5 131.5,245.5 129.5,245.5C 129.5,244.5 129.5,243.5 129.5,242.5C 136.244,240.754 140.244,236.421 141.5,229.5 Z"/></g>
<g><path style="opacity:1" fill="#595959" d="M 141.5,229.5 C 142.568,228.566 143.901,228.232 145.5,228.5C 145.5,233.167 145.5,237.833 145.5,242.5C 144.515,238.366 144.182,234.032 144.5,229.5C 143.5,229.5 142.5,229.5 141.5,229.5 Z"/></g>
<g><path style="opacity:1" fill="#a7a7a7" d="M 178.5,217.5 C 177.61,219.782 177.444,222.115 178,224.5C 178.417,223.244 179.25,222.577 180.5,222.5C 180.08,224.094 179.414,225.594 178.5,227C 180.297,230.146 182.464,230.313 185,227.5C 188.323,231.547 190.156,231.213 190.5,226.5C 191.833,226.5 192.5,227.167 192.5,228.5C 192.062,228.435 191.728,228.601 191.5,229C 193.01,229.85 194.51,230.683 196,231.5C 197.098,230.616 197.598,229.616 197.5,228.5C 198.281,229.729 198.781,231.062 199,232.5C 201.582,233.961 203.415,233.294 204.5,230.5C 204.833,230.5 205.167,230.5 205.5,230.5C 204.972,231.847 204.805,233.181 205,234.5C 205.414,234.043 205.914,233.709 206.5,233.5C 208.071,235.415 210.071,236.415 212.5,236.5C 212.5,237.5 212.5,238.5 212.5,239.5C 215.925,239.367 216.258,240.033 213.5,241.5C 212.167,241.5 211.5,240.833 211.5,239.5C 209.552,238.869 207.719,237.869 206,236.5C 202.536,239.069 202.702,241.236 206.5,243C 203.479,245.483 201.146,244.983 199.5,241.5C 198.571,242.55 197.905,242.55 197.5,241.5C 198.598,240.603 198.598,239.77 197.5,239C 190.647,237.664 183.814,236.497 177,235.5C 173.778,236.311 170.612,237.311 167.5,238.5C 168.919,234.985 169.586,231.319 169.5,227.5C 170.268,228.263 170.768,229.263 171,230.5C 171.853,228.875 172.853,228.542 174,229.5C 174.833,228 176,226.833 177.5,226C 176.027,225.29 175.36,224.124 175.5,222.5C 176.065,220.58 177.065,218.913 178.5,217.5 Z"/></g>
<g><path style="opacity:1" fill="#f3f3f3" d="M 193.5,234.5 C 192.287,232.324 190.62,231.991 188.5,233.5C 184.049,232.904 179.716,231.904 175.5,230.5C 175.783,229.711 176.283,229.044 177,228.5C 178.441,229.87 180.108,230.87 182,231.5C 185.136,231.229 188.303,230.896 191.5,230.5C 192.981,231.48 194.315,232.647 195.5,234C 194.906,234.464 194.239,234.631 193.5,234.5 Z"/></g>
<g><path style="opacity:1" fill="#717171" d="M 175.5,230.5 C 179.716,231.904 184.049,232.904 188.5,233.5C 190.62,231.991 192.287,232.324 193.5,234.5C 192.417,234.539 191.417,234.873 190.5,235.5C 187.917,234.521 185.251,233.854 182.5,233.5C 181.006,233.709 179.839,234.376 179,235.5C 178.626,234.584 178.126,233.75 177.5,233C 175.5,233 173.5,233 171.5,233C 172.858,232.066 174.192,231.232 175.5,230.5 Z"/></g>
<g><path style="opacity:1" fill="#333333" d="M 212.5,230.5 C 212.245,231.936 211.912,233.436 211.5,235C 213.113,235.089 214.28,234.255 215,232.5C 216.385,233.551 217.385,234.884 218,236.5C 220.711,233.472 221.877,230.139 221.5,226.5C 222.092,230.224 222.425,233.891 222.5,237.5C 219.68,238.465 218.347,240.465 218.5,243.5C 216.833,242.833 215.167,242.167 213.5,241.5C 216.258,240.033 215.925,239.367 212.5,239.5C 212.5,238.5 212.5,237.5 212.5,236.5C 210.071,236.415 208.071,235.415 206.5,233.5C 205.914,233.709 205.414,234.043 205,234.5C 204.805,233.181 204.972,231.847 205.5,230.5C 205.5,230.167 205.5,229.833 205.5,229.5C 205.461,228.244 205.961,227.244 207,226.5C 207.72,228.112 207.554,229.612 206.5,231C 207.416,231.374 208.25,231.874 209,232.5C 209.816,231.177 210.983,230.511 212.5,230.5 Z"/></g>
<g><path style="opacity:1" fill="#5f5f5f" d="M 197.5,241.5 C 193.589,239.886 189.422,238.886 185,238.5C 182.902,239.878 181.068,239.544 179.5,237.5C 177.886,238.884 176.22,240.384 174.5,242C 176.025,243.009 177.692,243.509 179.5,243.5C 176.375,244.479 173.042,244.813 169.5,244.5C 168.153,245.171 166.986,245.171 166,244.5C 165.794,246.936 164.627,248.602 162.5,249.5C 160.658,242.208 163.158,240.208 170,243.5C 170.167,243.167 170.333,242.833 170.5,242.5C 169.09,241.431 168.09,240.097 167.5,238.5C 170.612,237.311 173.778,236.311 177,235.5C 183.814,236.497 190.647,237.664 197.5,239C 198.598,239.77 198.598,240.603 197.5,241.5 Z"/></g>
<g><path style="opacity:1" fill="#565656" d="M 225.5,245.5 C 224.687,244.347 223.687,244.347 222.5,245.5C 222.167,245 221.833,244.5 221.5,244C 222.33,242.535 222.496,241.035 222,239.5C 221.26,241.319 220.093,242.652 218.5,243.5C 218.347,240.465 219.68,238.465 222.5,237.5C 222.81,238.738 223.31,238.738 224,237.5C 225.061,234.438 226.894,231.938 229.5,230C 230.332,229.312 230.998,229.479 231.5,230.5C 229.163,235.486 227.163,240.486 225.5,245.5 Z"/></g>
<g><path style="opacity:1" fill="#cecece" d="M 211.5,239.5 C 209.712,239.215 208.045,239.548 206.5,240.5C 207.811,241.258 208.311,242.258 208,243.5C 206.391,244.147 204.891,244.98 203.5,246C 205.962,245.389 208.296,245.555 210.5,246.5C 212.833,247.833 215.167,249.167 217.5,250.5C 218.738,250.81 218.738,251.31 217.5,252C 218.938,252.219 220.271,252.719 221.5,253.5C 222.115,256.039 222.782,258.539 223.5,261C 221.007,260.683 220.341,259.349 221.5,257C 220.368,252.483 219.368,252.65 218.5,257.5C 217.378,256.37 216.044,255.703 214.5,255.5C 213.047,254.175 213.381,253.342 215.5,253C 211.344,253.893 208.177,252.393 206,248.5C 205.586,248.957 205.086,249.291 204.5,249.5C 200.049,247.353 195.382,245.853 190.5,245C 188.604,243.935 188.437,243.102 190,242.5C 191.974,244.372 194.141,244.705 196.5,243.5C 193.383,240.079 189.716,239.579 185.5,242C 186.167,242.667 186.833,243.333 187.5,244C 185.527,244.495 183.527,244.662 181.5,244.5C 181.158,243.662 180.492,243.328 179.5,243.5C 177.692,243.509 176.025,243.009 174.5,242C 176.22,240.384 177.886,238.884 179.5,237.5C 181.068,239.544 182.902,239.878 185,238.5C 189.422,238.886 193.589,239.886 197.5,241.5C 197.905,242.55 198.571,242.55 199.5,241.5C 201.146,244.983 203.479,245.483 206.5,243C 202.702,241.236 202.536,239.069 206,236.5C 207.719,237.869 209.552,238.869 211.5,239.5 Z"/></g>
<g><path style="opacity:1" fill="#050505" d="M 106.5,243.5 C 110.634,242.515 114.968,242.182 119.5,242.5C 118.381,257.801 118.214,273.135 119,288.5C 119.273,290.101 119.773,291.601 120.5,293C 115.798,293.828 111.131,293.662 106.5,292.5C 107.098,291.205 107.598,289.872 108,288.5C 108.667,274.5 108.667,260.5 108,246.5C 107.768,245.263 107.268,244.263 106.5,243.5 Z"/></g>
<g><path style="opacity:1" fill="#131313" d="M 169.5,244.5 C 169.167,245.167 168.833,245.833 168.5,246.5C 166.926,247.984 165.593,249.651 164.5,251.5C 163.5,251.167 162.833,250.5 162.5,249.5C 164.627,248.602 165.794,246.936 166,244.5C 166.986,245.171 168.153,245.171 169.5,244.5 Z"/></g>
<g><path style="opacity:1" fill="#979797" d="M 179.5,243.5 C 180.492,243.328 181.158,243.662 181.5,244.5C 181.5,244.833 181.5,245.167 181.5,245.5C 179.011,245.298 176.677,245.798 174.5,247C 173.788,248.425 173.621,249.925 174,251.5C 172.621,249.285 170.787,247.619 168.5,246.5C 168.833,245.833 169.167,245.167 169.5,244.5C 173.042,244.813 176.375,244.479 179.5,243.5 Z"/></g>
<g><path style="opacity:1" fill="#e4e4e4" d="M 181.5,245.5 C 184.91,245.457 188.243,245.957 191.5,247C 192.422,249.294 193.422,251.461 194.5,253.5C 194.714,251.856 194.38,250.356 193.5,249C 194.167,248.833 194.833,248.667 195.5,248.5C 198.367,249.774 201.367,250.607 204.5,251C 206.864,253.845 209.864,255.679 213.5,256.5C 218.796,259.54 220.962,263.873 220,269.5C 219.282,268.549 218.449,268.383 217.5,269C 218.337,270.011 218.67,271.178 218.5,272.5C 215.477,272.105 214.477,273.105 215.5,275.5C 214.573,277.946 212.906,278.779 210.5,278C 211.328,277.085 212.328,276.419 213.5,276C 212.251,274.176 211.085,274.343 210,276.5C 208.333,276.5 206.667,276.5 205,276.5C 204.667,277.167 204.333,277.833 204,278.5C 203.51,277.207 203.343,275.873 203.5,274.5C 203.56,273.957 203.893,273.624 204.5,273.5C 204.833,274.167 205.167,274.833 205.5,275.5C 206.251,274.624 206.751,273.624 207,272.5C 208.461,273.883 209.294,273.549 209.5,271.5C 209.38,270.414 208.713,269.747 207.5,269.5C 205.596,269.886 203.762,269.886 202,269.5C 201.804,267.714 200.971,266.381 199.5,265.5C 199.598,266.616 199.098,267.616 198,268.5C 197.055,268.095 196.388,267.428 196,266.5C 194.261,268.741 192.094,270.408 189.5,271.5C 188.015,273.852 186.682,276.186 185.5,278.5C 181.662,277.694 177.662,276.694 173.5,275.5C 172.732,274.737 172.232,273.737 172,272.5C 171.517,273.448 171.351,274.448 171.5,275.5C 169.035,275.767 166.701,276.434 164.5,277.5C 164.66,275.847 165.326,274.514 166.5,273.5C 167.858,274.626 169.192,274.626 170.5,273.5C 170.154,272.304 169.654,272.304 169,273.5C 168.667,272.167 168.333,270.833 168,269.5C 167.259,270.641 166.425,270.641 165.5,269.5C 164.353,267.235 164.186,264.902 165,262.5C 165.333,263.833 165.667,265.167 166,266.5C 167.009,264.975 167.509,263.308 167.5,261.5C 169.979,260.418 171.479,261.418 172,264.5C 172.333,264.167 172.667,263.833 173,263.5C 173.998,266.028 174.831,266.028 175.5,263.5C 174.242,261.313 173.242,258.98 172.5,256.5C 173.949,254.392 173.449,252.725 171,251.5C 167.827,252.324 165.327,253.991 163.5,256.5C 162.957,256.44 162.624,256.107 162.5,255.5C 163.18,254.14 163.847,252.807 164.5,251.5C 165.593,249.651 166.926,247.984 168.5,246.5C 170.787,247.619 172.621,249.285 174,251.5C 173.621,249.925 173.788,248.425 174.5,247C 176.677,245.798 179.011,245.298 181.5,245.5 Z"/></g>
<g><path style="opacity:1" fill="#656565" d="M 211.5,239.5 C 211.5,240.833 212.167,241.5 213.5,241.5C 215.167,242.167 216.833,242.833 218.5,243.5C 221.253,247.36 220.753,248.36 217,246.5C 216.805,247.819 216.972,249.153 217.5,250.5C 215.167,249.167 212.833,247.833 210.5,246.5C 208.296,245.555 205.962,245.389 203.5,246C 204.891,244.98 206.391,244.147 208,243.5C 208.311,242.258 207.811,241.258 206.5,240.5C 208.045,239.548 209.712,239.215 211.5,239.5 Z"/></g>
<g><path style="opacity:1" fill="#ababab" d="M 129.5,242.5 C 129.5,243.5 129.5,244.5 129.5,245.5C 131.5,245.5 133.5,245.5 135.5,245.5C 135.5,257.5 135.5,269.5 135.5,281.5C 134.505,270.012 134.172,258.345 134.5,246.5C 132.5,246.5 130.5,246.5 128.5,246.5C 128.232,244.901 128.566,243.568 129.5,242.5 Z"/></g>
<g><path style="opacity:1" fill="#545454" d="M 214.5,255.5 C 213.833,255.5 213.5,255.833 213.5,256.5C 209.864,255.679 206.864,253.845 204.5,251C 201.367,250.607 198.367,249.774 195.5,248.5C 194.833,248.667 194.167,248.833 193.5,249C 194.38,250.356 194.714,251.856 194.5,253.5C 193.422,251.461 192.422,249.294 191.5,247C 188.243,245.957 184.91,245.457 181.5,245.5C 181.5,245.167 181.5,244.833 181.5,244.5C 183.527,244.662 185.527,244.495 187.5,244C 186.833,243.333 186.167,242.667 185.5,242C 189.716,239.579 193.383,240.079 196.5,243.5C 194.141,244.705 191.974,244.372 190,242.5C 188.437,243.102 188.604,243.935 190.5,245C 195.382,245.853 200.049,247.353 204.5,249.5C 205.086,249.291 205.586,248.957 206,248.5C 208.177,252.393 211.344,253.893 215.5,253C 213.381,253.342 213.047,254.175 214.5,255.5 Z"/></g>
<g><path style="opacity:1" fill="#595959" d="M 210.5,246.5 C 211.234,247.708 211.567,249.041 211.5,250.5C 208.886,250.723 207.219,249.556 206.5,247C 207.793,246.51 209.127,246.343 210.5,246.5 Z"/></g>
<g><path style="opacity:1" fill="#121212" d="M 181.5,259.5 C 182.64,258.199 183.973,257.032 185.5,256C 184.552,255.517 183.552,255.351 182.5,255.5C 182.5,254.167 182.5,252.833 182.5,251.5C 181.5,251.5 180.5,251.5 179.5,251.5C 179.5,250.5 179.5,249.5 179.5,248.5C 184.432,247.784 188.598,249.117 192,252.5C 192.865,261.807 189.365,264.14 181.5,259.5 Z"/></g>
<g><path style="opacity:1" fill="#f3f3f3" d="M 72.5,288.5 C 73.0761,285.124 73.7428,281.791 74.5,278.5C 69.3197,277.185 63.9864,277.185 58.5,278.5C 58.6236,279.107 58.9569,279.44 59.5,279.5C 60.3242,282.764 60.6576,286.098 60.5,289.5C 58.5,289.5 56.5,289.5 54.5,289.5C 54.0714,282.053 54.5714,274.719 56,267.5C 61.3814,261.554 67.8814,257.221 75.5,254.5C 80.2604,256.762 83.4271,260.429 85,265.5C 87.5886,276.998 83.4219,284.664 72.5,288.5 Z"/></g>
<g><path style="opacity:1" fill="#4a4a4a" d="M 179.5,251.5 C 180.5,251.5 181.5,251.5 182.5,251.5C 182.5,252.833 182.5,254.167 182.5,255.5C 183.552,255.351 184.552,255.517 185.5,256C 183.973,257.032 182.64,258.199 181.5,259.5C 178.014,258.848 176.847,256.848 178,253.5C 180.427,254.567 180.927,253.9 179.5,251.5 Z"/></g>
<g><path style="opacity:1" fill="#212121" d="M 167.5,261.5 C 166.455,260.122 165.122,259.122 163.5,258.5C 163.5,257.833 163.5,257.167 163.5,256.5C 165.327,253.991 167.827,252.324 171,251.5C 173.449,252.725 173.949,254.392 172.5,256.5C 173.242,258.98 174.242,261.313 175.5,263.5C 174.831,266.028 173.998,266.028 173,263.5C 172.667,263.833 172.333,264.167 172,264.5C 171.479,261.418 169.979,260.418 167.5,261.5 Z"/></g>
<g><path style="opacity:1" fill="#3c3c3c" d="M 194.5,253.5 C 196.129,255.06 197.296,254.727 198,252.5C 199.063,255.769 199.896,259.102 200.5,262.5C 198.525,263.578 196.692,263.245 195,261.5C 195.347,258.729 195.18,256.062 194.5,253.5 Z"/></g>
<g><path style="opacity:1" fill="#2c2c2c" d="M 225.5,245.5 C 225.353,248.443 224.687,251.276 223.5,254C 225.595,257.604 226.428,261.437 226,265.5C 223.504,271.832 220.004,277.499 215.5,282.5C 211.088,284.499 206.755,286.499 202.5,288.5C 200.672,289.794 198.672,290.794 196.5,291.5C 191.022,292.976 185.688,292.642 180.5,290.5C 179.059,291.304 177.559,291.971 176,292.5C 175.055,292.095 174.388,291.428 174,290.5C 173.184,291.823 172.017,292.489 170.5,292.5C 168.102,292.741 166.102,292.074 164.5,290.5C 166.588,289.061 168.921,288.394 171.5,288.5C 175.206,288.94 179.039,289.273 183,289.5C 184.03,289.164 184.53,288.497 184.5,287.5C 191.125,290.06 195.458,287.894 197.5,281C 196.663,279.989 196.33,278.822 196.5,277.5C 198.645,276.011 200.978,275.011 203.5,274.5C 203.343,275.873 203.51,277.207 204,278.5C 204.333,277.833 204.667,277.167 205,276.5C 206.667,276.5 208.333,276.5 210,276.5C 211.085,274.343 212.251,274.176 213.5,276C 212.328,276.419 211.328,277.085 210.5,278C 212.906,278.779 214.573,277.946 215.5,275.5C 214.477,273.105 215.477,272.105 218.5,272.5C 218.67,271.178 218.337,270.011 217.5,269C 218.449,268.383 219.282,268.549 220,269.5C 220.962,263.873 218.796,259.54 213.5,256.5C 213.5,255.833 213.833,255.5 214.5,255.5C 216.044,255.703 217.378,256.37 218.5,257.5C 219.368,252.65 220.368,252.483 221.5,257C 220.341,259.349 221.007,260.683 223.5,261C 222.782,258.539 222.115,256.039 221.5,253.5C 220.271,252.719 218.938,252.219 217.5,252C 218.738,251.31 218.738,250.81 217.5,250.5C 216.972,249.153 216.805,247.819 217,246.5C 220.753,248.36 221.253,247.36 218.5,243.5C 220.093,242.652 221.26,241.319 222,239.5C 222.496,241.035 222.33,242.535 221.5,244C 221.833,244.5 222.167,245 222.5,245.5C 223.687,244.347 224.687,244.347 225.5,245.5 Z"/></g>
<g><path style="opacity:1" fill="#565656" d="M 181.5,263.5 C 183.657,264.053 183.49,265.053 181,266.5C 180.53,265.423 180.697,264.423 181.5,263.5 Z"/></g>
<g><path style="opacity:1" fill="#f6f6f6" d="M 42.5,293.5 C 44.1667,293.5 45.8333,293.5 47.5,293.5C 46.0523,312.138 46.2189,330.804 48,349.5C 50.0549,359.222 55.8883,365.389 65.5,368C 80.9775,368.836 96.1442,367.003 111,362.5C 113.3,363.107 115.8,363.107 118.5,362.5C 132.096,368.764 145.596,368.764 159,362.5C 162.333,363.833 165.667,363.833 169,362.5C 177.242,366.534 185.408,366.367 193.5,362C 197.882,356.74 202.382,351.573 207,346.5C 211.768,350.264 216.268,354.43 220.5,359C 224.815,361.773 229.482,363.773 234.5,365C 244.036,366 253.536,366.833 263,367.5C 268,366.833 273,366.167 278,365.5C 290.179,368.295 303.012,367.795 316.5,364C 327.105,360.404 332.772,353.071 333.5,342C 331.935,329.5 329.101,317.333 325,305.5C 319.932,300.418 313.766,297.751 306.5,297.5C 300.445,298.944 294.445,298.777 288.5,297C 283.428,291.459 279.261,285.293 276,278.5C 269.693,273.238 262.86,272.404 255.5,276C 249.791,282.04 244.457,288.374 239.5,295C 235.696,297.66 231.862,299.493 228,300.5C 227.667,300.167 227.333,299.833 227,299.5C 225,300.167 223,300.833 221,301.5C 218.128,301.088 215.128,301.088 212,301.5C 205.482,299.525 198.816,298.525 192,298.5C 182.452,299.428 173.119,300.095 164,300.5C 144.337,294.266 127.67,299.266 114,315.5C 110.761,320.876 108.095,326.542 106,332.5C 104.248,335.962 101.915,338.962 99,341.5C 96.8719,341.927 94.7053,341.427 92.5,340C 90.2389,337.228 88.7389,334.062 88,330.5C 87.5802,317.16 87.0802,303.826 86.5,290.5C 87.8333,289.833 89.1667,289.167 90.5,288.5C 91.2543,301.142 91.7543,313.808 92,326.5C 92.4709,328.246 93.1376,329.913 94,331.5C 95.1475,330.542 96.1475,330.875 97,332.5C 98.1545,331.257 99.4878,330.257 101,329.5C 103.741,319.516 108.908,311.016 116.5,304C 123.541,298.989 130.874,294.822 138.5,291.5C 142.699,293.876 147.032,293.876 151.5,291.5C 155.546,293.628 159.713,294.961 164,295.5C 167.333,294.167 170.667,294.167 174,295.5C 174.75,294.874 175.584,294.374 176.5,294C 174.292,293.809 172.292,293.309 170.5,292.5C 172.017,292.489 173.184,291.823 174,290.5C 174.388,291.428 175.055,292.095 176,292.5C 177.559,291.971 179.059,291.304 180.5,290.5C 185.688,292.642 191.022,292.976 196.5,291.5C 201.938,293.325 207.605,294.658 213.5,295.5C 217.072,294.36 220.572,294.36 224,295.5C 225.832,294.142 227.665,293.808 229.5,294.5C 234.05,292.454 237.883,289.454 241,285.5C 248.647,268.416 260.814,263.916 277.5,272C 282.035,276.898 285.702,282.398 288.5,288.5C 289.894,290.691 291.394,292.025 293,292.5C 304.224,290.175 315.057,291.675 325.5,297C 329.928,300.092 332.761,304.259 334,309.5C 335.24,317.85 336.574,326.183 338,334.5C 341.012,354.157 332.846,366.323 313.5,371C 308.235,372.252 302.902,373.085 297.5,373.5C 293.585,372.64 289.752,372.64 286,373.5C 284.915,372.707 283.748,372.04 282.5,371.5C 272.581,372.242 262.247,372.575 251.5,372.5C 235.935,373.48 222.435,368.813 211,358.5C 209.667,358.5 208.333,358.5 207,358.5C 202.867,360.569 199.033,363.736 195.5,368C 193.913,368.862 192.246,369.529 190.5,370C 180.625,370.702 171.292,370.202 162.5,368.5C 149.625,373.414 136.625,373.747 123.5,369.5C 118.697,369.527 113.864,369.527 109,369.5C 101.163,372.557 92.9968,374.057 84.5,374C 73.0826,375.654 62.4159,373.654 52.5,368C 45.4765,360.274 41.9765,351.108 42,340.5C 41.2295,324.808 41.3961,309.142 42.5,293.5 Z"/></g>
<g><path style="opacity:1" fill="#7b7b7b" d="M 163.5,258.5 C 165.122,259.122 166.455,260.122 167.5,261.5C 167.509,263.308 167.009,264.975 166,266.5C 165.667,265.167 165.333,263.833 165,262.5C 164.186,264.902 164.353,267.235 165.5,269.5C 166.425,270.641 167.259,270.641 168,269.5C 168.333,270.833 168.667,272.167 169,273.5C 169.654,272.304 170.154,272.304 170.5,273.5C 169.192,274.626 167.858,274.626 166.5,273.5C 166.179,271.952 165.179,271.285 163.5,271.5C 163.736,266.987 163.736,262.653 163.5,258.5 Z"/></g>
<g><path style="opacity:1" fill="#747474" d="M 203.5,271.5 C 205.297,271.935 207.297,271.935 209.5,271.5C 209.294,273.549 208.461,273.883 207,272.5C 206.751,273.624 206.251,274.624 205.5,275.5C 205.167,274.833 204.833,274.167 204.5,273.5C 203.893,273.624 203.56,273.957 203.5,274.5C 200.978,275.011 198.645,276.011 196.5,277.5C 197.154,273.456 199.487,271.456 203.5,271.5 Z"/></g>
<g><path style="opacity:1" fill="#555555" d="M 173.5,275.5 C 173.5,276.167 173.5,276.833 173.5,277.5C 172.778,277.918 172.278,278.584 172,279.5C 170.154,276.218 167.987,276.385 165.5,280C 165.833,280.333 166.167,280.667 166.5,281C 165.877,283.607 165.21,286.107 164.5,288.5C 164.5,284.833 164.5,281.167 164.5,277.5C 166.701,276.434 169.035,275.767 171.5,275.5C 171.351,274.448 171.517,273.448 172,272.5C 172.232,273.737 172.732,274.737 173.5,275.5 Z"/></g>
<g><path style="opacity:1" fill="#1d1d1d" d="M 209.5,271.5 C 207.297,271.935 205.297,271.935 203.5,271.5C 201.775,270.722 200.109,270.389 198.5,270.5C 195.982,272.464 193.316,273.13 190.5,272.5C 190.037,275.583 188.871,278.249 187,280.5C 185.883,280.335 184.716,280.002 183.5,279.5C 182.808,280.025 182.308,280.692 182,281.5C 180.471,280.417 178.971,279.417 177.5,278.5C 176.117,281.076 175.283,280.742 175,277.5C 174.221,280.097 173.721,280.097 173.5,277.5C 173.5,276.833 173.5,276.167 173.5,275.5C 177.662,276.694 181.662,277.694 185.5,278.5C 186.682,276.186 188.015,273.852 189.5,271.5C 192.094,270.408 194.261,268.741 196,266.5C 196.388,267.428 197.055,268.095 198,268.5C 199.098,267.616 199.598,266.616 199.5,265.5C 200.971,266.381 201.804,267.714 202,269.5C 203.762,269.886 205.596,269.886 207.5,269.5C 208.713,269.747 209.38,270.414 209.5,271.5 Z"/></g>
<g><path style="opacity:1" fill="#f4e38c" d="M 74.5,278.5 C 69.3054,278.179 64.3054,278.513 59.5,279.5C 58.9569,279.44 58.6236,279.107 58.5,278.5C 63.9864,277.185 69.3197,277.185 74.5,278.5 Z"/></g>
<g><path style="opacity:1" fill="#e3e3e3" d="M 203.5,271.5 C 199.487,271.456 197.154,273.456 196.5,277.5C 196.33,278.822 196.663,279.989 197.5,281C 195.458,287.894 191.125,290.06 184.5,287.5C 180.131,287.467 175.798,287.8 171.5,288.5C 168.921,288.394 166.588,289.061 164.5,290.5C 163.167,289.833 163.167,289.167 164.5,288.5C 165.21,286.107 165.877,283.607 166.5,281C 166.167,280.667 165.833,280.333 165.5,280C 167.987,276.385 170.154,276.218 172,279.5C 172.278,278.584 172.778,277.918 173.5,277.5C 173.721,280.097 174.221,280.097 175,277.5C 175.283,280.742 176.117,281.076 177.5,278.5C 178.971,279.417 180.471,280.417 182,281.5C 182.308,280.692 182.808,280.025 183.5,279.5C 184.716,280.002 185.883,280.335 187,280.5C 188.871,278.249 190.037,275.583 190.5,272.5C 193.316,273.13 195.982,272.464 198.5,270.5C 200.109,270.389 201.775,270.722 203.5,271.5 Z"/></g>
<g><path style="opacity:1" fill="#fed60d" d="M 74.5,278.5 C 73.7428,281.791 73.0761,285.124 72.5,288.5C 72.5,290.167 72.5,291.833 72.5,293.5C 72.5,312.5 72.5,331.5 72.5,350.5C 75.1667,350.5 77.8333,350.5 80.5,350.5C 86.8421,350.666 93.1754,350.5 99.5,350C 102.174,349.33 104.507,348.163 106.5,346.5C 107.429,345.064 108.595,343.731 110,342.5C 110.17,346.493 110.004,350.493 109.5,354.5C 101.5,354.5 93.5,354.5 85.5,354.5C 76.4938,354.666 67.4938,354.5 58.5,354C 59.2489,352.266 59.7489,350.433 60,348.5C 60.4999,330.17 60.6666,311.836 60.5,293.5C 60.5,292.167 60.5,290.833 60.5,289.5C 60.6576,286.098 60.3242,282.764 59.5,279.5C 64.3054,278.513 69.3054,278.179 74.5,278.5 Z"/></g>
<g><path style="opacity:1" fill="#aeaeae" d="M 215.5,282.5 C 215.918,283.222 216.584,283.722 217.5,284C 212.63,285.967 207.63,287.467 202.5,288.5C 206.755,286.499 211.088,284.499 215.5,282.5 Z"/></g>
<g><path style="opacity:1" fill="#8a8a8a" d="M 184.5,287.5 C 184.53,288.497 184.03,289.164 183,289.5C 179.039,289.273 175.206,288.94 171.5,288.5C 175.798,287.8 180.131,287.467 184.5,287.5 Z"/></g>
<g><path style="opacity:1" fill="#eeeeee" d="M 47.5,293.5 C 49.5,293.5 51.5,293.5 53.5,293.5C 52.3618,310.456 52.1951,327.456 53,344.5C 56.3086,358.237 64.8086,363.403 78.5,360C 81.5952,359.065 83.9286,357.231 85.5,354.5C 93.5,354.5 101.5,354.5 109.5,354.5C 116.557,357.244 123.724,359.911 131,362.5C 135.965,362.559 141.131,362.393 146.5,362C 149.196,361.235 151.696,360.068 154,358.5C 155.147,359.458 156.147,359.125 157,357.5C 166.273,359.033 176.107,359.866 186.5,360C 189.249,358.877 191.749,357.377 194,355.5C 197.066,348.637 200.4,342.637 204,337.5C 205,336.833 206,336.167 207,335.5C 211.784,342.195 216.951,348.695 222.5,355C 226.281,357.225 230.281,358.891 234.5,360C 250.368,363.606 265.868,363.773 281,360.5C 283.667,361.167 286.333,361.833 289,362.5C 295.806,362.934 302.973,362.434 310.5,361C 326.152,357.53 331.985,348.03 328,332.5C 326.318,325.439 324.485,318.439 322.5,311.5C 323.028,310.279 323.695,309.113 324.5,308C 312.004,304.14 299.338,303.64 286.5,306.5C 284.492,304.732 282.326,303.066 280,301.5C 277.991,294.796 274.491,289.129 269.5,284.5C 269.674,282.139 270.007,279.806 270.5,277.5C 266.167,277.5 261.833,277.5 257.5,277.5C 257.5,278.5 257.5,279.5 257.5,280.5C 251.614,287.104 245.614,293.604 239.5,300C 231.798,303.561 223.632,305.728 215,306.5C 213.566,306.138 212.399,305.472 211.5,304.5C 203.571,305.461 196.238,308.128 189.5,312.5C 188.727,310.187 188.06,307.854 187.5,305.5C 184.167,304.167 180.833,304.167 177.5,305.5C 178.309,307.071 178.643,308.738 178.5,310.5C 176.83,310.751 175.33,311.418 174,312.5C 173.667,312.167 173.333,311.833 173,311.5C 169.73,312.132 166.563,312.799 163.5,313.5C 150.5,301.5 137.5,301.5 124.5,313.5C 121.269,315.22 118.436,317.553 116,320.5C 112.252,329.005 108.752,337.171 105.5,345C 106.056,345.383 106.389,345.883 106.5,346.5C 104.507,348.163 102.174,349.33 99.5,350C 93.1754,350.5 86.8421,350.666 80.5,350.5C 79.2955,331.47 77.9622,312.47 76.5,293.5C 79.8497,292.497 83.183,291.497 86.5,290.5C 87.0802,303.826 87.5802,317.16 88,330.5C 88.7389,334.062 90.2389,337.228 92.5,340C 94.7053,341.427 96.8719,341.927 99,341.5C 101.915,338.962 104.248,335.962 106,332.5C 108.095,326.542 110.761,320.876 114,315.5C 127.67,299.266 144.337,294.266 164,300.5C 173.119,300.095 182.452,299.428 192,298.5C 198.816,298.525 205.482,299.525 212,301.5C 215.128,301.088 218.128,301.088 221,301.5C 223,300.833 225,300.167 227,299.5C 227.333,299.833 227.667,300.167 228,300.5C 231.862,299.493 235.696,297.66 239.5,295C 244.457,288.374 249.791,282.04 255.5,276C 262.86,272.404 269.693,273.238 276,278.5C 279.261,285.293 283.428,291.459 288.5,297C 294.445,298.777 300.445,298.944 306.5,297.5C 313.766,297.751 319.932,300.418 325,305.5C 329.101,317.333 331.935,329.5 333.5,342C 332.772,353.071 327.105,360.404 316.5,364C 303.012,367.795 290.179,368.295 278,365.5C 273,366.167 268,366.833 263,367.5C 253.536,366.833 244.036,366 234.5,365C 229.482,363.773 224.815,361.773 220.5,359C 216.268,354.43 211.768,350.264 207,346.5C 202.382,351.573 197.882,356.74 193.5,362C 185.408,366.367 177.242,366.534 169,362.5C 165.667,363.833 162.333,363.833 159,362.5C 145.596,368.764 132.096,368.764 118.5,362.5C 115.8,363.107 113.3,363.107 111,362.5C 96.1442,367.003 80.9775,368.836 65.5,368C 55.8883,365.389 50.0549,359.222 48,349.5C 46.2189,330.804 46.0523,312.138 47.5,293.5 Z"/></g>
<g><path style="opacity:1" fill="#fdd71c" d="M 269.5,284.5 C 269.207,307.859 269.541,331.193 270.5,354.5C 267.167,354.5 263.833,354.5 260.5,354.5C 260.096,343.421 258.929,332.421 257,321.5C 253.867,312.683 247.7,309.183 238.5,311C 234.839,313.663 232.339,317.163 231,321.5C 229.752,329.808 230.752,337.808 234,345.5C 242.294,353.1 248.794,351.766 253.5,341.5C 255.361,342.528 256.695,344.028 257.5,346C 247.512,356.748 237.012,357.248 226,347.5C 218.709,335.485 218.709,323.485 226,311.5C 233.9,303.658 242.734,302.491 252.5,308C 254.373,309.704 256.04,311.537 257.5,313.5C 257.783,314.289 258.283,314.956 259,315.5C 259.825,304.659 259.659,293.992 258.5,283.5C 258.737,282.209 258.404,281.209 257.5,280.5C 257.5,279.5 257.5,278.5 257.5,277.5C 261.833,277.5 266.167,277.5 270.5,277.5C 270.007,279.806 269.674,282.139 269.5,284.5 Z"/></g>
<g><path style="opacity:1" fill="#dedede" d="M 53.5,293.5 C 55.8333,293.5 58.1667,293.5 60.5,293.5C 60.6666,311.836 60.4999,330.17 60,348.5C 59.7489,350.433 59.2489,352.266 58.5,354C 67.4938,354.5 76.4938,354.666 85.5,354.5C 83.9286,357.231 81.5952,359.065 78.5,360C 64.8086,363.403 56.3086,358.237 53,344.5C 52.1951,327.456 52.3618,310.456 53.5,293.5 Z"/></g>
<g><path style="opacity:1" fill="#dad9d7" d="M 72.5,293.5 C 73.8333,293.5 75.1667,293.5 76.5,293.5C 77.9622,312.47 79.2955,331.47 80.5,350.5C 77.8333,350.5 75.1667,350.5 72.5,350.5C 72.5,331.5 72.5,312.5 72.5,293.5 Z"/></g>
<g><path style="opacity:1" fill="#e6d682" d="M 258.5,283.5 C 259.659,293.992 259.825,304.659 259,315.5C 258.283,314.956 257.783,314.289 257.5,313.5C 258.494,303.681 258.827,293.681 258.5,283.5 Z"/></g>
<g><path style="opacity:1" fill="#fdd717" d="M 163.5,313.5 C 168.939,322.27 169.939,331.603 166.5,341.5C 157.914,353.75 146.581,357.25 132.5,352C 117.845,341.559 115.178,328.725 124.5,313.5C 137.5,301.5 150.5,301.5 163.5,313.5 Z"/></g>
<g><path style="opacity:1" fill="#fcd721" d="M 211.5,304.5 C 211.82,307.898 211.487,311.232 210.5,314.5C 203.317,311.55 196.484,312.216 190,316.5C 189.189,328.576 189.355,340.576 190.5,352.5C 186.627,354.43 182.294,355.097 177.5,354.5C 177.993,352.194 178.326,349.861 178.5,347.5C 178.5,335.167 178.5,322.833 178.5,310.5C 178.643,308.738 178.309,307.071 177.5,305.5C 180.833,304.167 184.167,304.167 187.5,305.5C 188.06,307.854 188.727,310.187 189.5,312.5C 196.238,308.128 203.571,305.461 211.5,304.5 Z"/></g>
<g><path style="opacity:1" fill="#fdd71a" d="M 322.5,311.5 C 320.886,313.456 319.219,315.456 317.5,317.5C 308.829,309.165 298.829,306.831 287.5,310.5C 284.699,313.964 285.366,316.797 289.5,319C 300.12,323.093 310.453,327.759 320.5,333C 324.039,336.387 325.372,340.553 324.5,345.5C 321.311,350.602 316.644,353.435 310.5,354C 299.991,355.07 289.658,354.237 279.5,351.5C 280.803,349.032 282.303,346.699 284,344.5C 284.739,343.426 285.739,342.759 287,342.5C 294.371,348.846 302.871,351.346 312.5,350C 317.946,349.593 319.446,347.093 317,342.5C 310.119,337.811 302.619,334.311 294.5,332C 289.41,330.042 284.91,327.208 281,323.5C 277.787,316.129 279.62,310.462 286.5,306.5C 299.338,303.64 312.004,304.14 324.5,308C 323.695,309.113 323.028,310.279 322.5,311.5 Z"/></g>
<g><path style="opacity:1" fill="#dfdfdd" d="M 257.5,280.5 C 258.404,281.209 258.737,282.209 258.5,283.5C 258.827,293.681 258.494,303.681 257.5,313.5C 256.04,311.537 254.373,309.704 252.5,308C 242.734,302.491 233.9,303.658 226,311.5C 218.709,323.485 218.709,335.485 226,347.5C 237.012,357.248 247.512,356.748 257.5,346C 256.695,344.028 255.361,342.528 253.5,341.5C 248.794,351.766 242.294,353.1 234,345.5C 230.752,337.808 229.752,329.808 231,321.5C 232.339,317.163 234.839,313.663 238.5,311C 247.7,309.183 253.867,312.683 257,321.5C 258.929,332.421 260.096,343.421 260.5,354.5C 263.833,354.5 267.167,354.5 270.5,354.5C 269.541,331.193 269.207,307.859 269.5,284.5C 274.491,289.129 277.991,294.796 280,301.5C 282.326,303.066 284.492,304.732 286.5,306.5C 279.62,310.462 277.787,316.129 281,323.5C 284.91,327.208 289.41,330.042 294.5,332C 302.619,334.311 310.119,337.811 317,342.5C 319.446,347.093 317.946,349.593 312.5,350C 302.871,351.346 294.371,348.846 287,342.5C 285.739,342.759 284.739,343.426 284,344.5C 282.303,346.699 280.803,349.032 279.5,351.5C 289.658,354.237 299.991,355.07 310.5,354C 316.644,353.435 321.311,350.602 324.5,345.5C 322.278,351.547 317.945,355.38 311.5,357C 302.54,359.08 293.707,358.58 285,355.5C 276.913,356.356 268.913,357.689 261,359.5C 251.463,358.259 241.963,356.759 232.5,355C 227.62,353.645 223.453,351.145 220,347.5C 215.859,340.885 212.526,333.885 210,326.5C 207.204,324.266 204.704,324.766 202.5,328C 198.843,334.42 196.01,341.254 194,348.5C 193.34,350.324 192.173,351.657 190.5,352.5C 189.355,340.576 189.189,328.576 190,316.5C 196.484,312.216 203.317,311.55 210.5,314.5C 211.487,311.232 211.82,307.898 211.5,304.5C 212.399,305.472 213.566,306.138 215,306.5C 223.632,305.728 231.798,303.561 239.5,300C 245.614,293.604 251.614,287.104 257.5,280.5 Z"/></g>
<g><path style="opacity:1" fill="#e1e1df" d="M 135.5,309.5 C 146.934,310.138 154.767,315.805 159,326.5C 161.352,333.123 160.852,339.456 157.5,345.5C 152.289,350.265 146.623,350.765 140.5,347C 130.122,339.882 125.955,330.049 128,317.5C 129.69,313.979 132.19,311.312 135.5,309.5 Z"/></g>
<g><path style="opacity:1" fill="#e7e6e5" d="M 322.5,311.5 C 324.485,318.439 326.318,325.439 328,332.5C 331.985,348.03 326.152,357.53 310.5,361C 302.973,362.434 295.806,362.934 289,362.5C 286.333,361.833 283.667,361.167 281,360.5C 265.868,363.773 250.368,363.606 234.5,360C 230.281,358.891 226.281,357.225 222.5,355C 216.951,348.695 211.784,342.195 207,335.5C 206,336.167 205,336.833 204,337.5C 200.4,342.637 197.066,348.637 194,355.5C 191.749,357.377 189.249,358.877 186.5,360C 176.107,359.866 166.273,359.033 157,357.5C 156.147,359.125 155.147,359.458 154,358.5C 151.696,360.068 149.196,361.235 146.5,362C 141.131,362.393 135.965,362.559 131,362.5C 123.724,359.911 116.557,357.244 109.5,354.5C 110.004,350.493 110.17,346.493 110,342.5C 108.595,343.731 107.429,345.064 106.5,346.5C 106.389,345.883 106.056,345.383 105.5,345C 108.752,337.171 112.252,329.005 116,320.5C 118.436,317.553 121.269,315.22 124.5,313.5C 115.178,328.725 117.845,341.559 132.5,352C 146.581,357.25 157.914,353.75 166.5,341.5C 169.614,345.057 173.614,347.057 178.5,347.5C 178.326,349.861 177.993,352.194 177.5,354.5C 182.294,355.097 186.627,354.43 190.5,352.5C 192.173,351.657 193.34,350.324 194,348.5C 196.01,341.254 198.843,334.42 202.5,328C 204.704,324.766 207.204,324.266 210,326.5C 212.526,333.885 215.859,340.885 220,347.5C 223.453,351.145 227.62,353.645 232.5,355C 241.963,356.759 251.463,358.259 261,359.5C 268.913,357.689 276.913,356.356 285,355.5C 293.707,358.58 302.54,359.08 311.5,357C 317.945,355.38 322.278,351.547 324.5,345.5C 325.372,340.553 324.039,336.387 320.5,333C 310.453,327.759 300.12,323.093 289.5,319C 285.366,316.797 284.699,313.964 287.5,310.5C 298.829,306.831 308.829,309.165 317.5,317.5C 319.219,315.456 320.886,313.456 322.5,311.5 Z"/></g>
<g><path style="opacity:1" fill="#d4d4d2" d="M 178.5,310.5 C 178.5,322.833 178.5,335.167 178.5,347.5C 173.614,347.057 169.614,345.057 166.5,341.5C 169.939,331.603 168.939,322.27 163.5,313.5C 166.563,312.799 169.73,312.132 173,311.5C 173.333,311.833 173.667,312.167 174,312.5C 175.33,311.418 176.83,310.751 178.5,310.5 Z"/></g>
</svg>
